# xmcd CD database file
#
# Track frame offsets:
#	150
#	24047
#	38147
#	82599
#	104050
#	126372
#	155100
#	175228
#	190113
#	211728
#	239078
#	267084
#	287314
#	310080
#
# Disc length: 4437 seconds
#
# Revision: 0
# Processed by: cddbd v1.4PL0 Copyright (c) Steve Scherf et al.
# Submitted via: CD2WAV32(EN) R3.19
#
DISCID=b411530e
DTITLE=mj - hu
DYEAR=1900
DGENRE=
TTITLE0=h
TTITLE1=h
TTITLE2=h
TTITLE3=h
TTITLE4=h
TTITLE5=h
TTITLE6=h
TTITLE7=h
TTITLE8=h
TTITLE9=h
TTITLE10=h
TTITLE11=h
TTITLE12=h
TTITLE13=h
EXTD=
EXTT0=
EXTT1=
EXTT2=
EXTT3=
EXTT4=
EXTT5=
EXTT6=
EXTT7=
EXTT8=
EXTT9=
EXTT10=
EXTT11=
EXTT12=
EXTT13=
PLAYORDER=
